<?xml version="1.0" standalone="no"?>
<!DOCTYPE svg PUBLIC "-//W3C//DTD SVG 20010904//EN"
 "http://www.w3.org/TR/2001/REC-SVG-20010904/DTD/svg10.dtd">
<svg version="1.0" xmlns="http://www.w3.org/2000/svg"
 width="1280.000000pt" height="1280.000000pt" viewBox="0 0 1280.000000 1280.000000"
 preserveAspectRatio="xMidYMid meet">
<metadata>
Created by potrace 1.15, written by Peter Selinger 2001-2017
</metadata>
<g transform="translate(0.000000,1280.000000) scale(0.100000,-0.100000)"
fill="#000000" stroke="none">
<path d="M5855 12510 c-16 -4 -61 -8 -98 -9 -73 -1 -160 -8 -532 -42 -448 -41
-759 -80 -1060 -134 -49 -9 -115 -20 -145 -25 -30 -5 -81 -14 -112 -20 -32 -5
-83 -14 -113 -20 -131 -24 -165 -30 -250 -49 -154 -33 -267 -62 -344 -87 -82
-27 -242 -107 -261 -129 -7 -8 -17 -15 -23 -15 -5 0 -31 -19 -57 -42 -26 -24
-56 -50 -66 -58 -26 -20 -76 -95 -98 -147 -27 -62 -18 -159 23 -245 53 -112
154 -230 252 -294 63 -41 324 -174 399 -204 19 -7 64 -27 100 -43 115 -52 182
-77 290 -107 25 -7 56 -16 70 -21 68 -23 377 -103 495 -129 33 -7 74 -16 90
-21 198 -55 1089 -132 2075 -181 345 -17 1396 -17 1605 0 223 18 474 41 575
52 47 6 126 15 175 21 130 15 240 28 320 39 238 33 374 54 480 71 66 11 145
24 175 29 30 5 81 14 113 20 31 5 81 14 110 19 154 27 402 86 492 116 102 35
313 130 395 179 150 88 230 184 230 275 0 56 -51 149 -116 213 -63 60 -87 80
-199 154 -38 25 -82 55 -97 65 -15 10 -30 19 -32 19 -3 0 -29 15 -58 33 -190
119 -412 203 -868 327 -152 41 -427 104 -530 120 -30 5 -109 19 -175 31 -66
12 -154 25 -195 29 -41 5 -120 15 -175 24 -55 8 -158 22 -230 31 -71 8 -165
20 -207 25 -43 6 -115 15 -160 20 -46 6 -114 15 -153 20 -179 24 -437 49 -700
70 -77 6 -169 13 -205 16 -108 9 -1173 13 -1205 4z m1010 -75 c182 -9 384 -20
450 -25 66 -5 170 -12 230 -16 144 -9 170 -23 41 -24 -103 0 -145 -8 -336 -67
-63 -19 -129 -39 -146 -43 -18 -4 -36 -10 -41 -13 -6 -4 -230 -7 -499 -7 -409
-1 -500 2 -559 15 -73 16 -111 24 -255 49 -166 29 -307 45 -453 51 -212 10
-205 25 18 40 50 3 146 10 215 15 69 5 217 14 330 20 113 6 214 12 225 14 54
9 486 4 780 -9z m1055 -86 c290 -38 455 -57 553 -65 42 -4 77 -10 77 -14 0 -3
-57 -12 -127 -19 -135 -13 -398 -45 -496 -61 -64 -10 -295 -2 -303 11 -3 5 8
11 23 15 15 4 52 17 81 30 48 21 53 26 50 51 -2 20 -13 33 -36 45 -19 9 -36
19 -39 22 -11 11 61 6 217 -15z m-280 -59 c0 -5 -10 -10 -23 -10 -13 0 -27 -4
-32 -8 -6 -5 -118 -44 -250 -86 -132 -43 -249 -82 -260 -87 -24 -9 -272 -88
-375 -119 -41 -12 -93 -28 -115 -36 -22 -7 -74 -23 -115 -34 -41 -12 -86 -26
-100 -32 -55 -22 -300 -21 -300 1 0 7 76 34 145 52 17 4 64 17 105 29 41 12
100 28 130 36 30 9 79 22 108 30 28 8 76 20 105 28 28 8 108 31 177 51 116 34
146 42 225 65 17 4 89 26 160 49 72 22 162 49 200 60 75 20 215 28 215 11z
m-2175 -21 c256 -31 347 -50 303 -63 -7 -2 -56 -12 -108 -21 -250 -45 -330
-81 -314 -143 7 -23 82 -57 152 -67 23 -4 42 -11 42 -15 0 -11 -39 -17 -150
-25 -447 -30 -853 -93 -1053 -161 -98 -34 -408 -179 -485 -228 -20 -12 -64
-37 -97 -55 -60 -33 -112 -65 -252 -154 l-76 -48 -51 19 c-334 129 -391 158
-470 238 -87 88 -136 149 -136 168 0 37 81 134 150 179 14 9 44 30 68 47 120
85 234 124 577 200 101 22 279 55 515 95 227 38 271 45 325 49 98 7 981 -5
1060 -15z m3590 -70 c39 -6 90 -14 115 -19 25 -5 74 -14 110 -20 209 -37 594
-134 820 -206 63 -20 126 -39 140 -44 131 -41 346 -150 514 -260 125 -82 176
-121 234 -179 59 -59 103 -124 91 -135 -2 -2 -58 -26 -124 -54 -116 -49 -160
-65 -255 -92 -25 -7 -65 -18 -90 -26 -25 -7 -85 -22 -135 -34 -49 -11 -107
-25 -128 -31 -36 -9 -41 -8 -150 64 -261 172 -420 263 -677 389 -389 190 -606
263 -982 328 -137 24 -178 31 -273 45 -158 24 -164 25 -170 34 -2 5 29 17 70
26 83 20 143 60 132 88 -10 25 -68 57 -105 57 -18 0 -31 4 -28 8 8 14 250 40
701 76 45 3 87 0 190 -15z m-2285 -38 c0 -5 -17 -11 -37 -14 -34 -5 -157 -37
-313 -82 -30 -9 -80 -23 -110 -31 -30 -8 -80 -22 -110 -31 -119 -33 -132 -34
-249 -23 -116 10 -184 19 -296 40 -33 6 -84 15 -112 19 -58 8 -75 18 -54 30
18 11 195 49 291 62 184 26 990 50 990 30z m955 -46 c88 -8 196 -19 240 -25
44 -6 99 -13 122 -16 24 -3 45 -9 48 -14 6 -10 -6 -14 -95 -30 -36 -6 -83 -16
-105 -21 -158 -36 -1056 -95 -1093 -71 -8 6 14 16 65 31 43 13 168 53 278 90
232 79 261 82 540 56z m179 -214 c34 -5 99 -14 146 -21 91 -12 133 -18 335
-51 371 -59 556 -106 790 -199 128 -51 368 -166 535 -255 178 -96 479 -282
480 -297 0 -8 -71 -22 -185 -37 -409 -54 -727 -91 -1170 -136 -82 -8 -193 -19
-245 -25 -376 -38 -633 -55 -1170 -80 -577 -27 -1471 13 -2140 95 -69 9 -161
20 -206 25 -44 4 -96 11 -115 14 -19 2 -70 10 -114 16 -419 59 -776 136 -1090
235 -22 7 -79 25 -127 40 -52 16 -88 33 -88 40 0 20 327 213 534 315 166 82
316 141 406 160 19 5 60 13 90 20 132 28 535 77 815 100 338 26 386 30 495 32
l115 3 3 -26 c5 -39 33 -60 104 -75 119 -25 190 -18 358 35 46 15 92 21 155
21 259 0 914 30 1065 49 93 12 155 12 224 2z m-4863 -535 c52 -24 132 -58 179
-76 47 -17 94 -36 105 -41 23 -10 386 -129 455 -149 25 -7 63 -19 85 -25 41
-13 255 -68 333 -85 226 -51 488 -97 747 -130 50 -6 122 -15 160 -20 240 -32
665 -72 955 -90 96 -6 239 -15 316 -21 184 -12 972 -12 1179 1 88 5 248 14
355 20 107 6 247 15 310 21 231 20 565 52 720 69 47 5 130 14 185 20 332 35
596 67 920 111 190 26 578 114 732 165 59 20 219 83 253 101 53 27 30 -18 -38
-75 -147 -123 -484 -255 -827 -322 -33 -6 -80 -16 -105 -21 -25 -5 -83 -15
-130 -24 -47 -8 -134 -23 -195 -33 -192 -34 -407 -66 -612 -92 -46 -5 -118
-15 -160 -20 -288 -37 -524 -60 -953 -91 -196 -14 -1099 -14 -1399 0 -842 41
-1323 75 -1851 132 -250 27 -622 110 -960 215 -47 14 -98 29 -115 34 -38 9
-121 43 -203 81 -35 16 -66 29 -70 29 -4 0 -94 43 -201 96 -172 86 -202 104
-269 168 -91 87 -160 185 -176 251 -7 26 5 18 87 -63 81 -79 108 -98 188 -136z"/>
<path d="M6300 10164 c-406 -12 -801 -59 -1130 -134 -19 -4 -51 -11 -70 -15
-214 -44 -778 -228 -1000 -327 -185 -82 -245 -111 -355 -173 -73 -41 -236
-152 -255 -175 -3 -3 -18 -14 -33 -24 -51 -32 -256 -237 -313 -312 -76 -102
-94 -148 -94 -244 0 -73 -2 -79 -27 -95 -14 -10 -54 -43 -89 -74 -34 -31 -96
-87 -139 -125 -69 -63 -111 -110 -227 -254 -82 -102 -140 -240 -139 -332 0
-119 109 -326 280 -533 31 -38 71 -87 89 -110 19 -23 116 -128 217 -233 l183
-190 16 -160 c17 -172 30 -301 46 -489 6 -66 15 -165 20 -220 5 -55 14 -154
20 -220 6 -66 15 -167 20 -225 5 -58 17 -181 25 -275 9 -93 20 -204 25 -245 6
-52 5 -77 -2 -81 -20 -12 -168 -52 -174 -47 -12 13 -7 98 10 153 39 129 56
225 63 339 12 206 -66 396 -161 396 -40 0 -61 -15 -193 -140 -68 -63 -155
-145 -195 -181 l-73 -66 -145 -1 c-191 -1 -374 -34 -524 -95 l-58 -24 -97 33
c-92 31 -216 65 -346 95 -91 21 -198 19 -224 -5 -41 -37 -18 -158 52 -280 13
-22 39 -68 57 -101 46 -84 110 -172 164 -224 36 -36 47 -54 52 -90 4 -25 13
-63 20 -83 7 -21 10 -39 6 -42 -4 -2 -79 -18 -167 -36 -165 -32 -203 -49 -189
-83 10 -27 44 -24 317 33 83 17 82 19 135 -92 3 -6 -25 -21 -113 -59 -11 -4
-66 -29 -123 -54 -56 -25 -107 -45 -112 -45 -6 0 -10 -13 -10 -29 0 -45 27
-46 114 -6 42 19 78 35 81 35 2 0 33 13 67 29 68 31 138 55 142 49 1 -1 19
-27 40 -57 21 -30 34 -56 28 -60 -45 -29 -172 -127 -172 -133 0 -4 9 -17 21
-29 23 -23 25 -23 140 64 35 26 68 47 74 47 7 0 20 -8 29 -19 9 -10 44 -31 77
-45 42 -19 59 -33 59 -46 0 -10 -4 -21 -9 -24 -9 -6 -261 -507 -261 -520 0 -3
-13 -34 -30 -68 -16 -34 -30 -65 -30 -69 0 -5 -11 -32 -24 -62 -14 -29 -34
-80 -46 -113 -12 -32 -25 -68 -29 -79 -17 -41 -31 -92 -31 -108 0 -21 -22 -22
-67 -1 -59 29 -93 90 -129 234 -19 80 -17 102 18 193 39 99 41 163 9 257 -63
184 -162 300 -257 300 -32 0 -129 -38 -189 -73 -54 -33 -116 -87 -146 -128
-17 -24 -17 -29 -4 -55 21 -42 84 -100 126 -114 32 -12 41 -11 82 10 26 13 59
36 74 52 59 62 95 15 97 -127 1 -81 -2 -96 -28 -150 -35 -71 -44 -145 -25
-224 25 -108 104 -277 155 -331 13 -14 67 -46 119 -70 l96 -45 -5 -35 c-20
-114 -36 -277 -36 -357 0 -93 19 -168 58 -233 31 -50 158 -172 205 -196 67
-35 191 -64 295 -69 63 -4 86 -8 83 -18 -29 -87 18 -156 146 -214 80 -37 207
-38 303 -4 86 31 151 64 172 88 29 32 51 95 57 163 6 65 6 65 39 68 l32 3 0
-50 c0 -27 5 -53 10 -56 6 -3 10 -14 10 -24 0 -24 56 -74 115 -104 154 -76
443 -55 517 37 35 43 12 136 -50 208 -14 17 -24 101 -51 458 -7 80 -16 192
-21 250 -5 58 -14 161 -20 230 -17 199 -29 259 -115 575 -55 203 -146 415
-269 628 -30 53 -53 103 -50 110 2 7 18 21 33 30 16 9 40 30 53 46 51 64 74
96 87 123 10 21 19 27 30 22 9 -4 28 -9 44 -12 15 -2 30 -8 33 -13 3 -5 21 -9
40 -9 30 0 34 3 34 25 0 26 -48 65 -81 65 -8 0 -24 6 -34 14 -17 12 -18 18 -6
72 8 33 18 62 23 65 5 3 40 4 78 1 64 -4 68 -3 75 18 11 34 -13 50 -86 58
l-64 7 -3 51 c-2 33 2 55 10 61 11 9 152 53 170 53 9 0 19 -63 29 -184 5 -61
13 -156 18 -211 6 -55 15 -154 21 -220 20 -210 29 -297 45 -440 8 -77 20 -185
25 -240 12 -117 25 -244 39 -370 6 -49 15 -139 21 -200 10 -104 25 -194 71
-430 10 -55 24 -125 29 -155 5 -30 17 -91 26 -135 8 -44 20 -102 24 -130 5
-27 21 -104 35 -170 14 -66 29 -140 34 -165 18 -89 51 -168 120 -287 42 -74
161 -224 241 -303 139 -140 291 -229 665 -389 11 -5 36 -16 55 -24 98 -42 164
-69 207 -83 27 -8 57 -19 68 -24 23 -11 267 -91 335 -110 25 -7 59 -17 75 -21
212 -61 410 -108 593 -140 28 -5 78 -14 110 -19 125 -22 262 -42 357 -52 150
-15 491 -21 565 -9 36 5 133 17 215 26 83 9 170 21 195 25 25 4 77 13 115 20
178 29 518 103 595 129 14 5 43 14 65 20 125 34 725 233 795 263 14 6 34 14
45 19 11 4 65 29 120 54 55 26 110 51 123 56 125 51 259 137 388 249 22 19 53
44 69 55 27 19 114 123 164 195 68 98 83 122 129 210 84 160 100 225 142 600
6 52 15 129 20 170 6 41 14 125 20 185 6 61 15 157 21 215 14 150 28 298 39
425 23 262 30 346 40 450 20 217 41 462 50 592 6 73 15 195 20 270 6 76 15
201 21 278 5 77 14 199 19 270 15 211 28 387 45 610 8 116 20 275 26 355 5 80
14 208 20 285 25 367 30 440 39 570 9 137 9 141 37 163 112 90 156 128 241
209 53 50 111 101 127 114 56 42 250 252 326 353 43 58 100 177 106 224 4 32
-1 55 -27 110 -25 55 -52 89 -133 170 -56 56 -118 112 -137 126 -150 107 -376
248 -422 263 -10 3 -19 20 -23 42 -13 80 -66 186 -134 270 -66 81 -175 193
-244 250 -37 31 -91 76 -120 99 -89 75 -253 179 -373 237 -63 30 -117 55 -120
55 -3 0 -20 6 -37 14 -92 41 -373 138 -507 176 -25 7 -56 16 -70 21 -23 7
-299 87 -380 109 -19 5 -66 18 -105 29 -415 116 -711 163 -1310 211 -129 11
-912 20 -1115 14z m1020 -84 c214 -14 401 -29 490 -40 395 -49 634 -97 1038
-211 17 -5 47 -13 65 -18 17 -5 59 -17 92 -26 33 -9 119 -34 190 -56 72 -23
144 -45 160 -49 43 -11 291 -96 350 -119 94 -38 107 -44 200 -87 134 -63 263
-145 391 -250 75 -61 334 -317 334 -330 0 -6 9 -19 19 -28 11 -10 36 -50 55
-90 30 -60 36 -84 36 -134 0 -91 -30 -134 -142 -208 -140 -92 -326 -164 -793
-305 -16 -5 -59 -18 -94 -29 -35 -11 -72 -20 -81 -20 -9 0 -20 -4 -25 -9 -6
-5 -26 -11 -46 -15 l-35 -6 7 57 c4 32 12 90 18 128 35 224 50 370 52 518 2
104 -1 131 -13 144 -12 12 -20 13 -37 4 -19 -10 -21 -21 -21 -94 -1 -116 -24
-362 -55 -567 -27 -187 -36 -220 -59 -220 -11 0 -12 7 -4 41 14 51 -2 122 -52
239 -91 216 -230 402 -387 516 -82 60 -236 125 -379 159 -158 37 -240 58 -248
63 -5 3 13 12 39 20 51 14 180 91 203 120 21 27 15 61 -13 72 -14 5 -32 7 -40
4 -19 -8 -19 3 0 36 8 14 14 34 15 46 0 29 -36 64 -66 64 -14 0 -32 7 -41 16
-13 12 -30 14 -93 8 l-77 -6 -12 30 c-24 57 -80 75 -160 52 -28 -8 -38 -6 -63
13 -24 18 -43 22 -97 21 -73 0 -116 -21 -127 -61 -8 -30 9 -58 83 -134 l64
-67 -28 -20 c-15 -10 -46 -29 -69 -40 -37 -19 -84 -64 -109 -105 -8 -13 -47
-22 -160 -37 -169 -24 -290 -51 -352 -80 -24 -11 -47 -20 -52 -20 -5 0 -22 -7
-37 -15 -57 -29 -57 -28 -51 118 2 72 11 163 18 200 11 59 11 70 -3 83 -29 29
-56 9 -67 -49 -13 -67 -31 -263 -31 -347 l0 -65 -137 -67 -136 -67 -68 35
c-87 43 -195 87 -329 131 -169 57 -203 63 -330 63 -66 0 -120 4 -120 8 0 5 15
17 34 28 19 10 72 41 117 68 46 26 98 57 116 67 114 65 157 118 155 188 -1 23
5 39 20 50 16 14 19 24 14 44 -8 34 -40 55 -111 73 -67 18 -97 11 -170 -41
-49 -36 -127 -63 -242 -86 l-63 -13 -32 31 c-45 42 -70 53 -115 52 -42 -1 -82
-14 -130 -43 -24 -15 -33 -29 -38 -57 l-6 -37 -62 28 c-34 15 -91 37 -125 49
-58 19 -67 19 -92 6 -48 -25 -60 -52 -60 -135 0 -127 35 -177 165 -239 85 -39
100 -49 103 -64 2 -10 -49 -41 -165 -97 -265 -130 -338 -186 -513 -399 -25
-30 -52 -64 -60 -77 -8 -12 -35 -48 -60 -79 -67 -87 -94 -123 -146 -197 -48
-70 -64 -77 -62 -30 1 15 -5 136 -12 270 -13 232 -6 463 17 605 4 29 2 37 -15
46 -24 13 -48 6 -57 -17 -24 -63 -30 -728 -8 -889 7 -53 9 -53 -152 -13 -312
78 -463 142 -684 289 -153 103 -147 98 -231 165 -96 75 -101 83 -94 122 3 18
1 35 -5 38 -6 4 -11 33 -11 64 0 42 7 71 28 109 67 129 343 393 541 518 9 6
34 22 56 36 63 41 242 130 390 194 158 68 482 182 640 225 17 4 77 21 135 38
244 69 484 118 730 151 85 11 266 27 445 40 175 12 1054 13 1235 1z m705 -667
c11 -23 33 -55 49 -72 51 -53 70 -56 232 -36 80 10 147 15 150 13 3 -3 -1 -17
-7 -32 -13 -28 -83 -56 -143 -56 -45 -1 -108 -17 -116 -30 -9 -14 -55 12 -64
36 -3 8 -19 14 -36 14 -24 0 -30 -4 -30 -22 0 -12 8 -30 17 -40 15 -17 15 -20
3 -28 -17 -11 -100 -13 -124 -4 -20 8 -21 24 -2 24 13 0 86 73 86 86 0 20 -41
78 -94 132 l-61 63 60 -3 c60 -3 60 -3 80 -45z m-1797 31 c24 -7 30 -24 8 -24
-11 0 -51 -14 -141 -50 -11 -5 -28 -11 -38 -14 -25 -8 -19 -59 7 -64 19 -4 91
15 111 28 6 4 25 12 43 18 24 8 32 8 32 -1 -1 -21 -26 -58 -48 -70 -96 -53
-344 -206 -372 -229 -42 -34 -73 -35 -270 -12 -95 11 -150 23 -185 39 -27 13
-70 32 -95 43 -25 11 -53 29 -61 39 -38 43 -55 175 -24 187 18 7 83 -14 175
-56 36 -17 99 -41 140 -55 l76 -25 158 31 c192 38 210 45 214 89 2 20 9 32 18
32 24 0 125 49 157 76 29 24 53 29 95 18z m1968 -31 c22 -30 16 -43 -19 -43
-36 0 -74 30 -62 49 10 18 66 13 81 -6z m-2529 -46 c15 -13 37 -29 48 -35 19
-10 19 -11 -7 -21 -14 -5 -54 -13 -87 -17 -68 -7 -91 3 -91 42 0 31 14 38 102
53 3 0 19 -10 35 -22z m2788 -197 c-3 -5 -13 -10 -21 -10 -8 0 -14 -4 -14 -8
0 -23 -148 -47 -168 -27 -12 11 20 23 96 34 42 6 78 14 81 16 9 9 32 5 26 -5z
m-619 -177 c77 -35 165 -36 286 -4 l87 23 88 -32 c85 -31 111 -38 293 -82 126
-30 216 -64 291 -108 63 -39 220 -185 257 -241 9 -14 34 -52 55 -83 46 -68
107 -198 132 -280 13 -42 16 -74 11 -118 -7 -71 -11 -78 -39 -78 -12 0 -56 -7
-97 -16 -41 -9 -102 -20 -135 -25 -33 -5 -87 -14 -120 -19 -461 -75 -1230
-149 -1542 -150 -107 0 -122 2 -127 18 -3 9 -13 53 -21 97 -9 43 -22 97 -29
120 -7 22 -19 60 -26 85 -91 318 -202 513 -337 593 -18 10 -33 22 -33 25 0 4
17 14 38 23 20 9 98 45 172 80 271 128 305 138 620 183 52 8 100 14 106 15 6
1 38 -11 70 -26z m-1690 -82 c16 -5 49 -14 74 -21 89 -25 215 -69 345 -120 58
-22 134 -62 146 -76 6 -8 18 -14 27 -14 26 0 117 -67 173 -127 57 -62 132
-200 167 -308 67 -206 109 -364 114 -425 l3 -45 -240 3 c-503 5 -1195 54
-1738 122 -312 39 -369 48 -624 96 l-142 27 22 28 c26 34 55 72 149 199 103
139 238 299 304 359 78 71 141 110 328 202 l159 78 31 -34 c44 -46 85 -52 236
-31 158 21 199 34 212 62 6 13 20 25 32 27 41 8 193 7 222 -2z m-3097 -419 c1
-29 5 -95 11 -145 15 -139 41 -420 70 -742 6 -66 15 -167 20 -225 5 -58 14
-159 20 -225 6 -66 12 -139 15 -162 2 -23 1 -44 -4 -47 -11 -7 -304 300 -371
388 -14 19 -58 78 -99 131 -84 112 -143 205 -179 285 -19 42 -25 73 -26 130
-1 99 26 157 150 330 30 42 305 320 317 320 4 0 20 11 35 25 24 23 27 23 34 7
3 -9 7 -41 7 -70z m8025 -78 c234 -156 300 -216 383 -353 53 -85 21 -168 -138
-366 -117 -145 -557 -551 -576 -532 -3 4 2 107 11 229 25 340 34 468 46 648 6
91 15 215 21 276 5 60 9 137 9 170 0 34 3 63 6 66 6 7 114 -55 238 -138z
m-7887 74 c170 -142 436 -305 583 -357 19 -7 44 -17 55 -21 59 -25 274 -88
355 -105 19 -4 51 -11 70 -15 80 -18 392 -79 480 -94 202 -35 189 -33 430 -65
276 -37 569 -65 950 -91 80 -5 228 -15 330 -22 246 -17 1095 -17 1295 0 492
42 681 61 910 93 39 5 104 14 145 20 41 5 100 14 130 19 30 5 87 14 125 20 39
7 135 25 215 42 80 17 161 33 180 35 19 2 44 8 55 12 11 5 38 14 60 20 46 13
121 35 290 86 66 20 134 41 150 46 89 26 225 73 355 121 96 36 255 115 301
150 24 18 58 43 74 55 l31 21 -8 -86 c-4 -48 -12 -159 -18 -247 -6 -88 -15
-221 -20 -295 -5 -74 -14 -202 -20 -285 -5 -82 -17 -244 -25 -360 -17 -238
-31 -434 -45 -645 -6 -80 -15 -208 -20 -285 -6 -77 -15 -202 -20 -277 -6 -76
-15 -200 -20 -275 -6 -76 -17 -232 -25 -348 -8 -115 -19 -264 -25 -330 -5 -66
-14 -190 -20 -275 -6 -85 -15 -209 -20 -275 -5 -66 -14 -183 -20 -260 -20
-259 -35 -432 -69 -805 -6 -58 -15 -161 -21 -230 -14 -166 -42 -465 -60 -635
-47 -447 -80 -677 -111 -765 -21 -59 -117 -237 -153 -282 -11 -15 -32 -44 -46
-64 -41 -63 -272 -284 -295 -284 -5 0 -17 -7 -27 -17 -10 -9 -20 -14 -23 -12
-2 3 0 34 5 69 5 36 14 110 20 165 11 102 18 161 45 390 17 142 29 247 45 400
6 55 15 134 20 175 5 41 14 122 20 180 6 58 15 141 20 185 27 230 53 465 70
620 6 55 15 138 20 185 5 47 14 132 20 190 6 58 15 139 20 180 6 41 21 183 35
315 14 132 30 282 35 333 6 50 15 135 20 187 5 52 14 138 20 190 5 52 14 137
20 188 5 50 17 160 25 242 8 83 19 191 25 240 5 50 14 142 20 205 6 63 15 158
20 210 34 344 60 624 91 995 6 77 12 234 13 348 l1 208 -25 19 c-122 95 -348
105 -526 25 -38 -18 -59 -41 -79 -89 -49 -117 -72 -392 -95 -1116 -24 -771
-29 -886 -65 -1540 -9 -157 -20 -378 -25 -493 -6 -114 -15 -303 -20 -420 -15
-299 -29 -596 -40 -852 -5 -121 -14 -312 -19 -425 -6 -113 -15 -306 -20 -430
-6 -124 -15 -308 -21 -410 -9 -170 -28 -620 -33 -784 l-2 -70 -50 -25 c-107
-53 -726 -264 -739 -251 -5 5 -4 54 3 117 12 119 35 362 51 548 12 134 24 272
40 448 17 199 29 337 40 457 5 63 17 192 25 285 14 164 23 265 45 527 6 68 15
170 20 228 5 58 14 166 20 240 6 74 15 185 20 245 24 276 53 632 70 855 6 74
15 189 20 255 10 133 24 317 40 530 6 77 17 226 25 330 8 105 19 271 25 370 6
99 15 248 20 330 5 83 15 272 21 420 16 366 7 407 -98 459 -21 10 -45 22 -54
26 -8 4 -47 16 -87 25 -106 26 -276 17 -354 -18 -31 -14 -64 -36 -72 -50 -33
-50 -49 -208 -76 -777 -35 -752 -87 -3143 -105 -4870 -3 -272 -8 -631 -12
-797 l-6 -301 -26 -6 c-14 -3 -46 -10 -71 -15 -238 -52 -411 -82 -713 -121
-43 -5 -107 -10 -142 -10 -55 0 -65 3 -65 18 0 9 5 87 10 172 6 85 15 228 20
317 10 156 18 294 40 655 5 90 14 240 20 333 5 94 17 280 25 415 9 135 20 324
25 420 5 96 14 258 20 360 11 192 23 415 40 725 5 99 14 266 20 370 32 610 41
782 50 985 6 124 15 329 20 455 34 762 46 1364 31 1480 -7 49 -17 95 -23 102
-19 23 -153 81 -212 92 -160 29 -353 -7 -443 -83 -40 -33 -48 -80 -65 -381
-25 -447 -13 -3646 22 -5540 16 -868 16 -889 -6 -894 -55 -11 -406 40 -689 99
-22 5 -67 14 -100 21 -100 20 -277 67 -286 76 -4 4 -4 55 1 113 8 94 15 191
50 695 5 77 14 214 20 305 6 91 15 228 20 305 5 77 14 210 20 295 5 85 14 225
20 310 35 524 80 1264 110 1785 5 99 14 259 20 355 63 1097 89 1812 82 2281
-2 103 -5 120 -25 150 -52 77 -179 119 -360 119 -137 0 -203 -13 -283 -53 -62
-32 -89 -61 -103 -113 -35 -132 -27 -1672 15 -2884 3 -85 9 -306 14 -490 5
-184 14 -470 20 -635 5 -165 14 -437 20 -605 5 -168 17 -485 25 -705 9 -220
20 -517 25 -660 5 -143 12 -308 16 -366 7 -114 3 -126 -38 -110 -13 5 -70 26
-128 46 -58 20 -114 40 -125 45 -11 4 -49 19 -85 33 -36 14 -90 36 -120 50
-30 13 -108 48 -173 77 -64 29 -119 55 -121 59 -6 8 -15 817 -21 1851 -14
2317 -56 4062 -106 4465 -21 170 -44 203 -184 274 -197 98 -430 118 -546 45
-41 -26 -59 -75 -59 -166 0 -83 28 -528 50 -793 5 -60 14 -171 20 -245 6 -74
18 -198 25 -275 8 -77 19 -194 25 -260 6 -66 15 -164 20 -217 11 -104 22 -226
39 -398 18 -187 31 -312 46 -455 8 -77 20 -183 25 -235 10 -92 21 -196 40
-387 6 -51 14 -135 20 -185 5 -51 14 -140 20 -198 6 -58 17 -161 25 -230 8
-69 19 -170 25 -225 6 -55 15 -138 20 -185 5 -47 14 -130 20 -185 6 -55 15
-136 20 -180 5 -44 14 -129 20 -190 6 -60 15 -141 20 -180 5 -38 14 -115 20
-170 6 -55 16 -138 21 -185 5 -47 14 -123 19 -170 5 -47 14 -125 20 -175 5
-49 14 -133 20 -185 19 -180 28 -265 35 -320 l7 -55 -77 75 c-79 77 -99 102
-185 230 -55 80 -113 196 -123 245 -4 17 -14 62 -22 100 -16 73 -77 375 -96
480 -6 33 -15 80 -20 105 -14 66 -58 296 -69 360 -12 70 -30 227 -60 530 -6
58 -15 141 -20 185 -5 44 -17 148 -25 230 -8 83 -19 191 -25 240 -5 50 -14
144 -20 210 -6 66 -15 161 -20 210 -5 50 -14 149 -20 220 -6 72 -15 171 -20
220 -5 50 -16 167 -25 260 -8 94 -19 215 -25 270 -5 55 -14 154 -20 220 -6 66
-15 165 -20 220 -5 55 -14 152 -19 215 -20 219 -41 455 -51 560 -12 121 -26
276 -41 440 -5 63 -14 162 -19 220 -5 58 -14 161 -20 230 -6 69 -18 195 -26
280 -21 224 -32 338 -44 485 -6 72 -15 166 -20 210 -16 126 -17 125 57 63z
m913 -928 c154 -51 235 -113 244 -183 45 -366 74 -1151 96 -2632 12 -844 32
-3696 26 -3703 -8 -7 -72 27 -101 54 -18 17 -24 36 -29 95 -4 41 -11 106 -16
144 -5 39 -14 117 -20 175 -6 58 -15 139 -20 180 -5 41 -14 125 -20 185 -6 61
-17 160 -25 220 -8 61 -19 155 -25 210 -6 55 -15 139 -20 188 -17 148 -45 409
-60 557 -7 58 -18 159 -25 225 -8 66 -19 165 -25 220 -6 55 -15 138 -20 185
-24 224 -30 283 -40 380 -6 58 -15 146 -20 195 -5 50 -16 155 -25 235 -8 80
-20 188 -25 240 -23 218 -47 447 -60 590 -6 63 -15 158 -20 210 -6 52 -17 167
-25 255 -8 88 -20 203 -25 255 -5 52 -14 151 -20 220 -6 69 -15 172 -20 230
-5 58 -14 170 -20 250 -6 80 -15 199 -20 265 -5 66 -12 215 -16 330 -8 268
-17 257 196 250 82 -3 133 -10 180 -25z m6053 -48 c29 -15 49 -32 52 -45 6
-23 -9 -349 -25 -557 -18 -230 -50 -578 -111 -1200 -28 -293 -43 -437 -64
-630 -9 -80 -20 -185 -25 -235 -24 -232 -32 -306 -41 -390 -5 -49 -14 -130
-19 -180 -19 -178 -30 -282 -45 -410 -8 -71 -20 -175 -26 -230 -5 -55 -14
-138 -19 -185 -5 -47 -14 -128 -20 -180 -5 -52 -14 -133 -19 -180 -6 -47 -15
-128 -20 -180 -6 -52 -18 -153 -26 -225 -15 -124 -21 -181 -44 -395 -6 -52
-15 -135 -21 -185 -6 -49 -15 -128 -20 -175 -16 -145 -24 -218 -71 -610 -4
-41 -11 -111 -15 -155 -4 -44 -11 -88 -16 -98 -9 -18 -137 -87 -163 -87 -18 0
-18 -1 -5 255 5 110 15 299 20 420 23 504 31 675 45 955 8 162 19 403 25 535
6 132 15 332 20 445 6 113 15 302 20 420 17 363 30 620 65 1260 8 151 19 424
25 605 36 1127 47 1335 85 1514 25 118 94 153 290 149 102 -3 127 -6 168 -26z
m-1418 -226 c63 -13 137 -44 170 -71 27 -22 30 -102 16 -441 -19 -442 -63
-1133 -100 -1564 -6 -63 -15 -180 -21 -260 -19 -252 -30 -401 -40 -520 -5 -63
-14 -176 -20 -250 -6 -74 -15 -184 -20 -245 -11 -128 -35 -415 -50 -595 -6
-69 -15 -177 -20 -240 -6 -63 -15 -168 -20 -232 -24 -283 -31 -369 -40 -468
-21 -223 -39 -430 -50 -555 -6 -71 -15 -177 -20 -235 -5 -58 -14 -159 -20
-225 -62 -702 -67 -746 -78 -757 -12 -12 -191 -62 -198 -56 -13 13 38 3452 66
4463 5 204 15 539 20 745 20 721 51 1307 76 1443 3 15 15 32 27 39 69 37 213
48 322 24z m-2995 -70 c75 -18 121 -39 145 -66 19 -21 20 -36 20 -389 0 -444
-25 -1067 -80 -1996 -9 -143 -20 -341 -25 -440 -10 -182 -21 -377 -40 -682 -6
-93 -15 -238 -20 -323 -11 -184 -24 -393 -45 -700 -9 -124 -20 -295 -25 -380
-5 -85 -14 -225 -20 -310 -6 -85 -15 -220 -20 -300 -5 -80 -14 -210 -19 -290
-6 -80 -15 -215 -21 -300 -5 -85 -14 -211 -20 -280 -5 -69 -10 -131 -10 -137
0 -18 -26 -16 -85 5 l-50 18 -2 64 c-2 36 -9 241 -18 455 -56 1446 -93 2612
-127 3960 -14 561 -17 1765 -4 1909 11 134 17 139 186 185 52 14 217 12 280
-3z m1556 -32 c59 -29 59 -29 67 -84 10 -64 2 -814 -13 -1140 -5 -124 -14
-331 -20 -460 -19 -421 -41 -872 -65 -1320 -37 -667 -46 -834 -65 -1185 -23
-412 -69 -1175 -90 -1505 -5 -85 -14 -234 -20 -330 -33 -569 -47 -757 -56
-771 -8 -13 -211 -11 -219 1 -6 10 -15 462 -36 1970 -5 399 -12 1452 -16 2340
-6 1614 1 2163 29 2367 10 77 13 84 42 101 31 18 90 38 136 46 14 3 79 3 146
1 109 -2 127 -6 180 -31z m-4163 -1546 c26 -35 29 -46 55 -180 15 -81 15 -93
-2 -190 -10 -57 -21 -120 -24 -142 -7 -36 -8 -37 -23 -20 -28 31 -31 61 -15
125 19 72 20 210 2 258 -16 46 -56 76 -87 66 -13 -4 -51 -33 -84 -64 -115
-108 -181 -160 -194 -152 -13 8 51 74 164 169 33 27 85 75 115 106 30 31 58
56 62 56 4 0 18 -15 31 -32z m-70 -219 c8 -43 2 -135 -12 -171 -6 -17 -9 -16
-45 8 -21 15 -60 34 -87 44 l-49 17 57 53 c32 29 69 63 83 76 33 31 43 26 53
-27z m-1652 -124 c73 -12 207 -45 319 -77 19 -5 47 -12 63 -15 38 -7 41 -18
12 -41 -25 -20 -25 -20 -87 0 -35 11 -71 24 -80 29 -10 5 -27 9 -37 9 -11 0
-22 4 -25 9 -9 14 -83 22 -110 11 -14 -5 -32 -23 -41 -39 -14 -27 -13 -36 1
-88 9 -32 18 -68 21 -81 3 -12 9 -25 14 -28 11 -6 12 -34 2 -34 -18 0 -163
293 -163 329 0 35 1 36 111 16z m1279 -25 c180 -18 253 -44 322 -114 35 -34
51 -62 66 -108 26 -84 45 -192 38 -215 -4 -11 -35 -29 -79 -47 -39 -16 -100
-42 -135 -58 -34 -15 -66 -28 -71 -28 -4 0 -20 -12 -35 -27 l-27 -27 20 -20
20 -20 88 41 c48 23 106 49 128 58 22 9 48 21 57 26 32 16 38 10 38 -40 l0
-49 -77 -16 c-204 -43 -243 -54 -250 -72 -7 -18 26 -57 43 -50 6 2 58 14 115
26 57 11 114 23 127 25 18 4 22 1 21 -17 0 -13 -5 -39 -12 -57 l-12 -35 -105
3 c-114 3 -160 -8 -160 -37 0 -35 21 -42 127 -42 l104 0 -12 -22 c-7 -13 -44
-55 -83 -94 -82 -81 -206 -149 -341 -186 -107 -29 -383 -33 -455 -6 -25 9 -59
19 -75 22 -41 9 -137 65 -133 78 2 6 31 25 63 43 61 33 76 55 55 80 -17 21
-53 9 -120 -37 l-55 -38 -32 38 c-53 62 -47 68 86 83 94 11 121 21 121 48 0
39 -22 43 -132 27 -56 -9 -115 -18 -129 -22 -23 -5 -29 0 -53 41 -15 26 -26
49 -23 51 3 3 64 5 136 5 119 1 132 2 141 20 8 14 6 23 -11 40 -21 21 -28 21
-160 17 -96 -4 -141 -2 -147 6 -18 24 -33 95 -39 184 -6 90 -5 94 27 158 60
118 218 245 367 296 201 69 422 92 653 68z m-1101 -142 c92 -30 121 -42 121
-50 0 -5 -4 -8 -8 -8 -10 0 -74 -86 -96 -128 -9 -18 -20 -32 -24 -32 -17 0
-92 190 -92 232 0 13 29 9 99 -14z m1317 -1100 c71 -118 190 -363 213 -438 13
-41 27 -84 31 -95 10 -26 67 -226 90 -315 36 -143 47 -230 80 -650 6 -74 15
-187 21 -250 5 -63 14 -173 19 -243 10 -129 10 -129 56 -204 33 -56 44 -82 39
-100 -8 -33 -28 -24 -36 18 -5 21 -23 48 -48 72 -35 32 -44 36 -61 27 -28 -15
-25 -42 10 -75 32 -30 39 -65 17 -83 -7 -6 -33 -13 -58 -14 l-44 -3 -3 45 c-4
70 -38 130 -74 130 -27 0 -33 -27 -17 -74 18 -51 14 -100 -8 -92 -8 3 -27 6
-41 6 -46 0 -55 14 -61 87 -5 61 -8 68 -28 71 -17 2 -26 -4 -35 -23 -14 -31
-33 -27 -32 6 1 21 29 209 55 369 21 127 39 311 39 401 0 221 -55 544 -152
879 -5 19 -12 47 -15 63 -3 18 -13 29 -29 33 -54 14 -56 -13 -10 -179 56 -204
68 -258 108 -497 8 -45 13 -165 13 -300 0 -135 -5 -255 -13 -300 -21 -125 -30
-182 -42 -256 -11 -67 -13 -71 -44 -82 -54 -20 -71 -15 -113 35 -74 89 -78
102 -102 358 -6 61 -16 164 -23 230 -7 71 -12 283 -12 520 l-1 400 -30 0 c-27
0 -30 -4 -36 -40 -4 -22 -10 -137 -13 -255 -10 -336 40 -1041 83 -1153 6 -15
28 -46 49 -69 56 -62 62 -77 62 -167 0 -71 -3 -83 -26 -111 -15 -17 -39 -37
-55 -46 l-29 -15 -1 43 c-1 72 -50 136 -83 109 -20 -17 -20 -41 -1 -67 18 -24
19 -88 1 -103 -23 -19 -121 -34 -163 -24 -45 10 -55 40 -28 90 21 39 14 63
-18 63 -27 0 -48 -21 -68 -67 -16 -39 -23 -40 -43 -11 -22 31 -20 59 8 127 35
88 49 212 49 441 0 215 -1 228 -70 530 -11 48 -16 151 -18 398 -2 183 -7 337
-10 342 -10 17 -52 11 -60 -7 -4 -10 -10 -124 -12 -253 -6 -287 8 -426 68
-685 21 -88 23 -126 24 -315 0 -276 -9 -366 -38 -382 -50 -27 -270 2 -362 47
-73 35 -115 74 -166 152 -68 102 -75 146 -55 340 9 87 21 187 26 223 22 142
100 423 145 525 7 17 25 59 40 95 15 36 34 81 42 100 32 75 303 619 311 624 5
3 44 -1 88 -9 187 -33 408 -1 584 87 30 15 60 27 67 27 7 1 29 -27 49 -61z
m-1676 -206 c43 -46 81 -115 109 -202 26 -78 27 -137 2 -193 -38 -86 -41 -99
-41 -157 0 -57 15 -132 40 -195 43 -110 80 -155 158 -191 40 -18 52 -29 48
-42 -2 -9 -7 -32 -11 -50 -8 -38 -14 -37 -106 9 -84 42 -115 83 -183 240 -22
51 -46 148 -46 185 0 17 13 57 29 90 50 104 54 121 48 192 -11 117 -43 190
-99 221 -25 14 -31 14 -71 -6 -25 -12 -60 -35 -80 -52 -43 -38 -72 -39 -109
-4 -47 45 -41 55 75 133 51 34 120 59 166 60 27 0 42 -8 71 -38z"/>
<path d="M4106 8974 c-23 -22 -23 -362 0 -483 23 -121 28 -131 65 -131 l32 0
-6 48 c-4 26 -13 85 -22 132 -10 57 -15 141 -14 257 1 94 -2 176 -5 182 -10
16 -32 14 -50 -5z"/>
<path d="M9762 8823 c-5 -10 -12 -82 -15 -160 -7 -155 -16 -203 -54 -305 -21
-55 -24 -70 -13 -83 25 -30 46 -17 74 45 15 33 33 81 41 107 20 69 42 370 28
391 -14 24 -50 27 -61 5z"/>
<path d="M2780 5065 c-48 -29 -188 -93 -250 -116 -37 -13 -70 -37 -70 -50 0
-18 33 -39 54 -33 14 3 37 -3 59 -16 67 -40 165 -23 202 34 9 13 24 47 34 75
10 28 26 58 37 66 15 11 17 17 8 32 -14 24 -43 27 -74 8z m-60 -124 c0 -21
-33 -41 -67 -41 -20 0 -33 3 -29 8 6 5 79 38 94 41 1 1 2 -3 2 -8z"/>
<path d="M2995 4970 c-14 -26 -18 -28 -35 -18 -15 10 -25 10 -38 2 -28 -18
-26 -45 3 -68 23 -19 26 -25 17 -43 -8 -15 -8 -25 2 -38 17 -23 48 -16 63 15
9 19 20 25 44 25 20 0 36 7 43 18 9 15 6 22 -16 38 -24 17 -26 23 -16 44 26
56 -38 80 -67 25z"/>
<path d="M1860 4905 c-17 -21 -3 -47 30 -55 13 -3 38 -25 54 -48 37 -51 85
-82 127 -82 30 0 101 41 128 74 8 9 22 16 32 16 18 0 49 25 49 40 0 25 -54 42
-162 51 -62 5 -142 12 -178 15 -54 5 -68 3 -80 -11z m250 -85 c0 -18 -39 -31
-60 -20 -32 17 -23 30 20 30 22 0 40 -4 40 -10z"/>
<path d="M2349 4753 c-79 -87 -56 -164 46 -149 66 10 133 73 119 111 -7 18
-65 49 -109 59 -25 5 -35 2 -56 -21z m71 -63 c0 -5 -7 -10 -15 -10 -8 0 -15 5
-15 10 0 6 7 10 15 10 8 0 15 -4 15 -10z"/>
<path d="M2535 4503 c-22 -8 -65 -18 -95 -22 -64 -8 -99 -25 -182 -88 -66 -50
-76 -66 -58 -88 19 -23 43 -18 86 18 66 56 108 77 153 77 23 0 61 9 83 20 56
27 67 26 149 -16 39 -19 77 -33 85 -30 8 3 14 18 14 34 0 26 -7 33 -72 64 -96
46 -115 50 -163 31z"/>
</g>
</svg>
